HIERARCHY
ROOT pelvis
{
  OFFSET 0 100 0
  CHANNELS 6 Xposition Yposition Zposition Zrotation Xrotation Yrotation
  JOINT pelvis_right_femur
  {
    OFFSET -10.78128 -3.44521 -0.5502486
    CHANNELS 3 Zrotation Xrotation Yrotation
    JOINT right_femur_tibia
    {
      OFFSET -0.8047443 -44.0398 -0.1307829
      CHANNELS 3 Zrotation Xrotation Yrotation
      JOINT right_tibia_foot
      {
        OFFSET 3.006224 -47.83518 -5
        CHANNELS 3 Zrotation Xrotation Yrotation
        End Site
        {
          OFFSET 0 -5 15
        }
      }
    }
  }
  JOINT pelvis_left_femur
  {
    OFFSET 10.78128 -3.44521 -0.5502486
    CHANNELS 3 Zrotation Xrotation Yrotation
    JOINT left_femur_tibia
    {
      OFFSET 0.8047443 -44.0398 -0.1307829
      CHANNELS 3 Zrotation Xrotation Yrotation
      JOINT left_tibia_foot
      {
        OFFSET -4.370144 -48.10324 -4.275266
        CHANNELS 3 Zrotation Xrotation Yrotation
        End Site
        {
          OFFSET 0 -5 15
        }
      }
    }
  }
  JOINT pelvis_spine1
  {
    OFFSET 0 6.468898 -3.129235
    CHANNELS 3 Zrotation Xrotation Yrotation
    JOINT spine1
    {
      OFFSET 0 23.15396 4.99043
      CHANNELS 3 Zrotation Xrotation Yrotation
      JOINT spine2
      {
        OFFSET 0 20.79997 -5.064912
        CHANNELS 3 Zrotation Xrotation Yrotation
        JOINT neck
        {
          OFFSET 0 14.38658 9.616178
          CHANNELS 3 Zrotation Xrotation Yrotation
          End Site
          {
            OFFSET 0 20 0
          }
        }
      }
      JOINT right_manubrium
      {
        OFFSET -5.722621 16.35077 3.967754
        CHANNELS 3 Zrotation Xrotation Yrotation
        JOINT right_clavicle
        {
          OFFSET -13.16364 1.694482 -4.693211
          CHANNELS 3 Zrotation Xrotation Yrotation
          JOINT right_humerus
          {
            OFFSET -28.5034 -0.3100689 -2.792744
            CHANNELS 3 Zrotation Xrotation Yrotation
            JOINT right_radius
            {
              OFFSET -25.15693 0.02248979 -1.271978
              CHANNELS 3 Zrotation Xrotation Yrotation
              End Site
              {
                OFFSET -15 0 0
              }
            }
          }
        }
      }
      JOINT left_manubrium
      {
        OFFSET 5.722621 16.35077 3.967754
        CHANNELS 3 Zrotation Xrotation Yrotation
        JOINT left_clavicle
        {
          OFFSET 13.16364 1.694482 -4.693211
          CHANNELS 3 Zrotation Xrotation Yrotation
          JOINT left_humerus
          {
            OFFSET 29.39168 -1.063119 -2.237045
            CHANNELS 3 Zrotation Xrotation Yrotation
            JOINT left_radius
            {
              OFFSET 24.59957 -0.9528479 0.9047498
              CHANNELS 3 Zrotation Xrotation Yrotation
              End Site
              {
                OFFSET 15 -0 -0
              }
            }
          }
        }
      }
    }
  }
}
MOTION
Frames: 15
Frame Time: 0.0416666666667
23.3752 100.4772 262.9874 -0.1185406 -2.963501 -2.852002 1.528353 13.44203 7.740489 -0 28.09454 -0 4.218086 -14.35095 -6.516084 3.0627 -31.41415 0.5112862 -0 26.6501 -0 -3.243846 -8.065433 19.38538 0.1607146 -3.71323 10.57676 -2.163684 12.0272 -2.245171 2.101636 19.03876 4.790092 2.562677 -17.84664 5.382418 2.645358 -23.7363 11.60119 78.92311 21.69767 -4.801772 -0 0 25.52453 -27.56572 13.44827 14.3042 0.1196966 -15.05239 -2.849546 -89.76775 22.26537 25.79884 0 0 -10.82715 -3.405618 5.233058 15.02672
24.60325 100.3851 270.706 -0.1083953 -2.918698 -2.702521 0.978015 13.49729 7.387268 -0 35.36658 -0 6.731012 -9.656071 -7.016141 1.686639 -29.38595 -0.4932116 -0 29.01055 -0 -2.619686 -8.085363 19.08633 0.1075018 -4.844522 10.54366 -2.253095 11.90535 -2.088157 2.238014 19.17947 4.673165 2.478396 -17.7643 5.477065 2.720837 -22.51832 11.35495 79.70119 21.28003 -5.712291 -0 0 25.03065 -27.45598 13.30331 14.18325 0.01726181 -14.47251 -2.914026 -89.56161 22.59109 25.43292 0 0 -10.39673 -3.762252 5.253115 15.43053
25.97254 101.0386 278.1128 -0.08043929 -2.705442 -1.974003 0.3145057 11.19651 6.723635 -0 44.01395 -0 8.619329 -5.953005 -7.850333 0.2338412 -26.09706 -1.115579 -0 30.82313 -0 -1.698859 -9.721226 19.08784 0.1456177 -5.984239 10.08002 -2.258113 11.81093 -2.125924 2.271448 19.53054 4.67775 2.355474 -17.63183 5.651467 3.126808 -21.19509 11.18249 80.69686 21.08592 -7.06741 -0 0 23.66229 -27.07012 13.29356 13.79074 -0.2000864 -14.3645 -3.175023 -88.88645 23.03118 24.18919 0 0 -10.47824 -4.00099 5.331907 15.62279
27.22202 102.1072 284.8977 -0.06008484 -2.521104 -1.344355 0.5517571 6.60134 5.615994 -0 52.54736 -0 9.307164 -4.528887 -8.871739 -0.9560683 -22.05391 -1.676124 -0 30.85024 -0 -0.8852273 -11.67258 18.97356 0.2116345 -6.747253 9.353656 -2.233923 11.73483 -2.204245 2.067527 20.075 4.866575 2.112257 -17.34985 5.879512 3.820637 -20.15592 11.20924 81.6795 21.10282 -8.388014 -0 0 21.94788 -26.4949 13.39286 13.28927 -0.4514201 -14.69202 -3.546305 -87.63552 23.55598 22.09966 0 0 -10.97771 -4.038427 5.4858 15.58755
28.29346 103.5885 291.1534 -0.04238362 -2.31909 -0.6548749 0.786708 -1.761948 5.134953 -0 57.49877 -0 9.186579 -4.970057 -9.121565 -1.825666 -16.95369 -2.054553 -0 29.10976 -0 -0.4759258 -13.25318 18.61988 0.1305191 -7.284348 8.176205 -2.006765 11.57742 -2.70042 1.755609 20.81853 5.205891 1.825326 -16.85919 6.210136 4.482178 -19.33151 11.14319 82.82757 21.24262 -9.677403 -0 0 20.42086 -25.82477 13.52032 12.8338 -0.5102327 -15.36296 -4.103292 -85.89066 24.10163 19.18711 0 0 -11.87991 -3.867333 5.707312 15.34469
29.26233 105.2127 297.0106 -0.02902232 -2.132338 -0.02477572 1.518101 -9.152172 4.501475 -0 58.7625 -0 8.384192 -5.743543 -9.155252 -2.486863 -12.26822 -2.642032 -0 26.55028 -0 -0.4759431 -14.30894 18.16736 -0.05533345 -7.509234 6.825426 -1.634993 11.48932 -3.576684 1.590717 21.72587 5.508362 1.638657 -16.14579 6.598984 4.648843 -18.58395 10.77372 84.05619 21.36713 -10.99629 -0 0 19.33058 -25.17347 13.56913 12.4992 -0.3024025 -16.03638 -4.601451 -83.99127 24.53147 15.85006 0 0 -13.17529 -3.528556 5.9739 14.87449
30.11444 106.2331 302.4619 -0.001060116 -1.655812 1.582996 2.010678 -15.95444 3.933155 -0 55.81139 -0 7.144684 -6.270712 -9.491221 -2.875215 -7.057128 -3.128483 -0 22.70198 -0 -0.6220002 -15.48599 17.28086 -0.4133767 -7.808768 5.402689 -1.171865 10.96027 -4.895984 1.63214 22.24061 5.805731 1.543273 -15.78222 7.153745 4.16737 -17.57498 10.0836 85.24437 21.36606 -12.57672 -0 0 18.52968 -24.61979 13.47954 12.25541 0.2745783 -16.61094 -5.172165 -81.99725 24.88594 12.27063 0 0 -14.73294 -3.170102 6.258801 14.21868
30.91702 106.6389 307.6794 0.01595487 -1.111747 3.41948 2.067032 -21.4166 3.589857 -0 49.82511 -0 5.628606 -6.348161 -10.11825 -3.102235 -2.661542 -3.64988 -0 19.40289 -0 -0.7943237 -16.76451 16.41817 -0.8337322 -7.942509 4.060475 -0.60275 10.41879 -6.234214 1.875465 22.76992 5.905889 1.570855 -15.38171 7.610584 3.528184 -16.72915 9.372039 86.07222 21.29298 -14.05748 -0 0 17.7964 -24.15631 13.28992 12.01263 0.8686852 -17.4562 -5.832975 -79.83882 25.15496 8.359518 0 0 -16.52081 -2.834049 6.569331 13.41311
31.65556 106.1926 313.1412 0.01680158 -0.5718983 5.24593 1.516923 -26.07695 3.488546 -0 41.16013 -0 3.969086 -6.124789 -10.87522 -3.180469 1.399623 -4.143936 -0 17.06377 -0 -0.9190923 -18.35543 15.662 -1.296238 -7.948861 2.808406 -0.03978221 9.815804 -7.619026 2.24244 22.91766 5.802044 1.647742 -15.25978 7.903364 2.724594 -15.8249 8.675705 86.71412 21.2072 -15.56307 -0 0 16.7996 -23.69451 13.06098 11.68936 1.642453 -18.22528 -6.441561 -77.62996 25.31423 4.632068 0 0 -18.29228 -2.478671 6.911254 12.51742
32.22889 105.0826 318.4672 0.008445315 -0.2158455 6.453883 0.7923556 -29.28682 3.238206 -0 31.40751 -0 2.156554 -5.816064 -11.43404 -3.078735 4.872989 -4.656485 -0 16.04864 -0 -1.102963 -20.09198 15.10486 -1.524112 -7.613096 2.177577 0.4023984 9.239182 -8.390289 2.551086 22.95397 5.596233 1.69622 -15.30979 8.013414 2.166712 -15.02727 8.316745 87.21767 21.19256 -16.89203 -0 0 15.23379 -23.11701 12.86357 11.09488 2.369578 -19.22453 -6.750383 -75.41916 25.2662 1.061721 0 0 -20.03602 -2.00586 7.271257 11.57154
32.70158 103.6284 324.3081 -0.003935683 0.08327362 7.472672 0.2653163 -32.08004 3.731988 -0 24.14756 -0 0.1837987 -6.010236 -11.6953 -2.840371 7.987475 -5.107428 -0 16.41806 -0 -1.49078 -21.61985 14.74499 -1.543541 -7.527862 1.959905 0.6814703 8.787109 -8.687757 2.773884 22.92347 5.32252 1.709318 -15.53923 7.957628 1.944754 -14.23092 8.209954 87.66722 21.27298 -18.11499 -0 0 13.04069 -22.37434 12.75228 10.26092 2.87163 -20.14735 -6.784839 -73.63869 25.07825 -1.855416 0 0 -21.44857 -1.474838 7.619936 10.6681
33.10173 102.3335 330.2199 -0.007798263 0.1597526 7.734249 1.060757 -34.44537 3.578361 -0 18.85658 -0 -1.484196 -6.593924 -12.24023 -2.5801 10.71819 -5.275639 -0 18.07102 -0 -2.330516 -22.26422 14.48259 -1.242608 -7.011042 2.105597 0.8573724 8.713114 -8.483549 2.798982 22.92669 5.048549 1.638056 -15.8724 7.723852 2.166528 -13.19393 8.442549 88.31335 21.43038 -19.35286 -0 0 10.19175 -21.37178 12.7526 9.14767 3.138781 -21.04154 -6.628283 -72.39826 24.86505 -4.03026 0 0 -22.33854 -0.9692439 7.923395 9.921812
33.41216 101.4111 336.6082 -0.02029378 0.3723033 8.461836 1.421144 -35.11065 3.991483 -0 19.11371 -0 -2.767572 -6.099658 -12.50433 -1.990996 12.61371 -5.470901 -0 21.17128 -0 -3.732039 -21.36554 14.2703 -0.8872464 -7.306697 2.140355 0.8292109 8.383161 -8.285451 2.853323 22.90588 4.948692 1.58954 -16.42536 7.739437 2.470348 -12.18206 8.613196 89.14598 21.57691 -20.46989 -0 0 7.495223 -20.30379 12.82278 8.107159 3.014428 -21.56543 -6.522861 -72.00557 24.81255 -5.040334 0 0 -22.28967 -0.6045749 8.164166 9.487179
33.62606 100.8862 343.3153 -0.0342555 0.5713255 9.144168 3.0403 -33.10293 5.21493 -0 21.53317 -0 -3.89664 -5.454895 -11.91471 -1.428979 13.28596 -5.752504 -0 26.36971 -0 -5.515665 -18.7043 14.53375 -0.4842023 -7.650119 2.096938 0.748676 8.17746 -8.242944 2.778492 22.99591 4.898996 1.501399 -16.91697 7.694922 2.654367 -11.43362 8.569219 89.96893 21.67737 -21.03272 -0 0 5.667788 -19.38051 12.89286 7.431921 2.995599 -21.40371 -6.274332 -72.53599 24.96439 -4.768288 0 0 -21.59218 -0.4043056 8.347197 9.359767
33.7856 101.284 350.4811 -0.03480852 0.5795994 9.172875 3.316726 -31.07628 6.830723 -0 25.62007 -0 -5.169177 -5.518912 -10.72362 -1.263803 12.44589 -5.842503 -0 33.97839 -0 -7.43809 -14.50162 15.53759 -0.1405535 -8.209302 2.30792 0.5955676 8.117882 -8.064234 2.719314 23.32243 4.824659 1.442654 -17.39621 7.629324 2.703103 -11.08397 8.466295 90.39636 21.83858 -20.94534 -0 0 4.677785 -18.57281 12.9871 6.985466 2.841462 -20.58069 -5.8292 -74.0315 25.3302 -3.190095 0 0 -20.21916 -0.4575649 8.486462 9.523164
